<svg width="137" height="190" viewBox="0 0 137 190" fill="none" xmlns="http://www.w3.org/2000/svg">
<path fill-rule="evenodd" clip-rule="evenodd" d="M46.7815 3.07999L90.3675 3.07999C94.3509 3.07999 97.5801 6.3092 97.5801 10.2926C97.5801 14.2761 94.3509 17.5053 90.3675 17.5053H85.2396V25.6766H84.7631V38.3076V53.8802H85.2404V59.0831C113.009 66.4395 133.475 91.7414 133.475 121.824C133.475 157.667 104.419 186.724 68.5756 186.724C32.7324 186.724 3.67569 157.667 3.67569 121.824C3.67569 91.7417 24.1421 66.44 51.91 59.0833V53.8802H52.3907V38.6325L52.3907 21.0311H69.8563V17.5053L46.7815 17.5053C42.7981 17.5053 39.5689 14.2761 39.5689 10.2926C39.5689 6.3092 42.7981 3.07999 46.7815 3.07999ZM36.526 10.2926C36.526 4.62866 41.1176 0.0371094 46.7815 0.0371094L90.3675 0.0371094C96.0314 0.0371094 100.623 4.62866 100.623 10.2926C100.623 15.9566 96.0314 20.5482 90.3675 20.5482H87.806V21.0311V38.3076V54.6855V56.6405C115.964 64.9347 136.518 90.9788 136.518 121.824C136.518 159.347 106.099 189.766 68.5756 189.766C31.0518 189.766 0.632813 159.347 0.632813 121.824C0.632813 90.9779 21.188 64.9331 49.3478 56.6397V54.6855V38.6325L49.3478 21.0311V20.5482L46.7815 20.5482C41.1176 20.5482 36.526 15.9566 36.526 10.2926ZM68.5753 182.075C101.851 182.075 128.826 155.003 128.826 121.609C128.826 92.0555 88.629 109.549 67.782 118.621C65.0725 119.8 62.6899 120.837 60.7649 121.61C46.4218 124.694 34.1953 117.907 25.1651 112.894C14.5263 106.989 8.32413 103.546 8.32413 121.609C8.32413 155.003 35.2995 182.075 68.5753 182.075Z" fill="white"/>
</svg>
